# xmcd
#
# Track frame offsets: 
#        182
#        17795
#        40967
#        64242
#
# Disc length: 1215 seconds
#
# Revision: 0
# Processed by: cddbd v1.5.2PL0 Copyright (c) Steve Scherf et al.
# Submitted via: ExactAudioCopy v1.4
#
DISCID=3004bd04
DTITLE=Voodoo Suite And Carol Bailey - Spirit Of Life
DYEAR=1993
DGENRE=House
TTITLE0=Spirit Of Life (Radio Mix)
TTITLE1=Spirit Of Life (Dub House Vocal Mix)
TTITLE2=Spirit Of Life (Euro Mix)
TTITLE3=Spirit Of Life (Extravaganza Mix)
EXTD=
EXTT0=
EXTT1=
EXTT2=
EXTT3=
PLAYORDER=
